<?xml version="1.0" encoding="UTF-8" standalone="no"?>
<svg xmlns="http://www.w3.org/2000/svg" font-family="Arial" height="790" width="2576">
    <defs>
        <marker id="fifoEnd" markerHeight="4" markerWidth="4" refX="4" refY="2">
            <polygon fill="rgb(100,100,100)" points="0,0 5,2 0,4" stroke-width="none"/>
        </marker>
        <marker id="depEnd" markerHeight="4" markerWidth="4" refX="4" refY="2">
            <polygon fill="rgb(98,131,167)" points="0,0 5,2 0,4" stroke-width="none"/>
        </marker>
    </defs>
    <path d="M 1111,50 L 1111,106 Q 1111,126 1091,126 L 26,126 Q 6,126 6,146 L 6,668 Q 6,688 26,688 L 50,688 " fill="none" marker-end="url(#depEnd)" stroke="rgb(98,131,167)" stroke-dasharray="5,2" stroke-width="2.5px"/>
    <path d="M 2537,50 L 2537,170 Q 2537,190 2517,190 L -6,190 Q -26,190 -26,210 L -26,683 Q -26,703 -6,703 L 50,703 " fill="none" marker-end="url(#depEnd)" stroke="rgb(98,131,167)" stroke-dasharray="5,2" stroke-width="2.5px"/>
    <path d="M 923,50 L 923,98 Q 923,118 903,118 L 30,118 Q 10,118 10,138 L 10,255 Q 10,275 30,275 L 50,275 " fill="none" marker-end="url(#depEnd)" stroke="rgb(98,131,167)" stroke-dasharray="5,2" stroke-width="2.5px"/>
    <path d="M 261,60 L 262,67 Q 265,86 245,86 L 46,86 Q 26,86 26,106 L 26,270 Q 26,290 46,290 L 50,290 " fill="none" marker-end="url(#depEnd)" stroke="rgb(98,131,167)" stroke-dasharray="5,2" stroke-width="2.5px"/>
    <path d="M 117,50 L 117,58 Q 117,78 97,78 L 50,78 Q 30,78 30,98 L 30,285 Q 30,305 50,305 L 50,305 " fill="none" marker-end="url(#depEnd)" stroke="rgb(98,131,167)" stroke-dasharray="5,2" stroke-width="2.5px"/>
    <path d="M 1446,50 L 1446,122 Q 1446,142 1426,142 L 18,142 Q -2,142 -2,162 L -2,300 Q -2,320 18,320 L 50,320 " fill="none" marker-end="url(#depEnd)" stroke="rgb(98,131,167)" stroke-dasharray="5,2" stroke-width="2.5px"/>
    <path d="M 535,50 L 535,82 Q 535,102 515,102 L 38,102 Q 18,102 18,122 L 18,315 Q 18,335 38,335 L 50,335 " fill="none" marker-end="url(#depEnd)" stroke="rgb(98,131,167)" stroke-dasharray="5,2" stroke-width="2.5px"/>
    <path d="M 2366,50 L 2366,162 Q 2366,182 2346,182 L -2,182 Q -22,182 -22,202 L -22,330 Q -22,350 -2,350 L 50,350 " fill="none" marker-end="url(#depEnd)" stroke="rgb(98,131,167)" stroke-dasharray="5,2" stroke-width="2.5px"/>
    <path d="M 1591,30 L 1597,131 Q 1597,150 1577,150 L 14,150 Q -6,150 -6,170 L -6,345 Q -6,365 14,365 L 50,365 " fill="none" marker-end="url(#depEnd)" stroke="rgb(98,131,167)" stroke-dasharray="5,2" stroke-width="2.5px"/>
    <path d="M 2098,50 L 2098,154 Q 2098,174 2078,174 L 2,174 Q -18,174 -18,194 L -18,360 Q -18,380 2,380 L 50,380 " fill="none" marker-end="url(#depEnd)" stroke="rgb(98,131,167)" stroke-dasharray="5,2" stroke-width="2.5px"/>
    <path d="M 717,50 L 717,90 Q 717,110 697,110 L 34,110 Q 14,110 14,130 L 14,375 Q 14,395 34,395 L 50,395 " fill="none" marker-end="url(#depEnd)" stroke="rgb(98,131,167)" stroke-dasharray="5,2" stroke-width="2.5px"/>
    <path d="M 391,50 L 391,74 Q 391,94 411,94 L 475,94 Q 495,94 495,114 L 495,740 Q 495,760 514,759 L 697,743 " fill="none" marker-end="url(#depEnd)" stroke="rgb(98,131,167)" stroke-dasharray="5,2" stroke-width="2.5px"/>
    <path d="M 261,60 L 262,67 Q 265,86 285,86 L 479,86 Q 499,86 499,106 L 499,720 Q 499,740 518,739 L 697,723 " fill="none" marker-end="url(#depEnd)" stroke="rgb(98,131,167)" stroke-dasharray="5,2" stroke-width="2.5px"/>
    <path d="M 261,60 L 262,67 Q 265,86 285,86 L 479,86 Q 499,86 499,106 L 499,255 Q 499,275 519,275 L 523,275 " fill="none" marker-end="url(#depEnd)" stroke="rgb(98,131,167)" stroke-dasharray="5,2" stroke-width="2.5px"/>
    <path d="M 923,50 L 923,98 Q 923,118 903,118 L 503,118 Q 483,118 483,138 L 483,270 Q 483,290 503,290 L 523,290 " fill="none" marker-end="url(#depEnd)" stroke="rgb(98,131,167)" stroke-dasharray="5,2" stroke-width="2.5px"/>
    <path d="M 2366,50 L 2366,162 Q 2366,182 2346,182 L 471,182 Q 451,182 451,202 L 451,285 Q 451,305 471,305 L 523,305 " fill="none" marker-end="url(#depEnd)" stroke="rgb(98,131,167)" stroke-dasharray="5,2" stroke-width="2.5px"/>
    <path d="M 1591,30 L 1597,131 Q 1597,150 1577,150 L 487,150 Q 467,150 467,170 L 467,300 Q 467,320 487,320 L 523,320 " fill="none" marker-end="url(#depEnd)" stroke="rgb(98,131,167)" stroke-dasharray="5,2" stroke-width="2.5px"/>
    <path d="M 1446,50 L 1446,122 Q 1446,142 1426,142 L 491,142 Q 471,142 471,162 L 471,315 Q 471,335 491,335 L 523,335 " fill="none" marker-end="url(#depEnd)" stroke="rgb(98,131,167)" stroke-dasharray="5,2" stroke-width="2.5px"/>
    <path d="M 535,50 L 535,82 Q 535,102 515,102 L 511,102 Q 491,102 491,122 L 491,330 Q 491,350 511,350 L 523,350 " fill="none" marker-end="url(#depEnd)" stroke="rgb(98,131,167)" stroke-dasharray="5,2" stroke-width="2.5px"/>
    <path d="M 717,50 L 717,90 Q 717,110 697,110 L 507,110 Q 487,110 487,130 L 487,345 Q 487,365 507,365 L 523,365 " fill="none" marker-end="url(#depEnd)" stroke="rgb(98,131,167)" stroke-dasharray="5,2" stroke-width="2.5px"/>
    <path d="M 2098,50 L 2098,154 Q 2098,174 2078,174 L 475,174 Q 455,174 455,194 L 455,360 Q 455,380 475,380 L 523,380 " fill="none" marker-end="url(#depEnd)" stroke="rgb(98,131,167)" stroke-dasharray="5,2" stroke-width="2.5px"/>
    <path d="M 391,50 L 391,74 Q 391,94 411,94 L 475,94 Q 495,94 495,114 L 495,375 Q 495,395 515,395 L 523,395 " fill="none" marker-end="url(#depEnd)" stroke="rgb(98,131,167)" stroke-dasharray="5,2" stroke-width="2.5px"/>
    <path d="M 1769,50 L 1769,138 Q 1769,158 1749,158 L 483,158 Q 463,158 463,178 L 463,390 Q 463,410 483,410 L 523,410 " fill="none" marker-end="url(#depEnd)" stroke="rgb(98,131,167)" stroke-dasharray="5,2" stroke-width="2.5px"/>
    <path d="M 1913,50 L 1913,146 Q 1913,166 1893,166 L 479,166 Q 459,166 459,186 L 459,405 Q 459,425 479,425 L 523,425 " fill="none" marker-end="url(#depEnd)" stroke="rgb(98,131,167)" stroke-dasharray="5,2" stroke-width="2.5px"/>
    <path d="M 1271,40 L 1283,115 Q 1285,134 1265,134 L 495,134 Q 475,134 475,154 L 475,420 Q 475,440 495,440 L 523,440 " fill="none" marker-end="url(#depEnd)" stroke="rgb(98,131,167)" stroke-dasharray="5,2" stroke-width="2.5px"/>
    <path d="M 697,743 L 512,738 Q 503,738 503,728 L 503,495 Q 503,485 513,485 L 523,485 " fill="none" marker-end="url(#fifoEnd)" stroke="rgb(100,100,100)" stroke-width="2.5px"/>
    <path d="M 872,470 L 882,470 Q 892,470 892,480 L 892,728 Q 892,738 883,738 L 697,743 " fill="none" stroke="rgb(100,100,100)" stroke-width="2.5px"/>
    <circle cx="701" cy="742" fill="rgb(100,100,100)" r="8" stroke="rgb(100,100,100)" stroke-width="1px"/>
    <path d="M 697,763 L 512,758 Q 503,758 503,748 L 503,510 Q 503,500 513,500 L 523,500 " fill="none" marker-end="url(#fifoEnd)" stroke="rgb(100,100,100)" stroke-width="2.5px"/>
    <path d="M 872,485 L 882,485 Q 892,485 892,495 L 892,748 Q 892,758 883,758 L 697,763 " fill="none" stroke="rgb(100,100,100)" stroke-width="2.5px"/>
    <circle cx="701" cy="762" fill="rgb(100,100,100)" r="8" stroke="rgb(100,100,100)" stroke-width="1px"/>
    <path d="M 697,723 L 512,718 Q 503,718 503,708 L 503,465 Q 503,455 513,455 L 523,455 " fill="none" marker-end="url(#fifoEnd)" stroke="rgb(100,100,100)" stroke-width="2.5px"/>
    <path d="M 872,455 L 882,455 Q 892,455 892,465 L 892,708 Q 892,718 883,718 L 697,723 " fill="none" stroke="rgb(100,100,100)" stroke-width="2.5px"/>
    <circle cx="701" cy="722" fill="rgb(100,100,100)" r="8" stroke="rgb(100,100,100)" stroke-width="1px"/>
    <path d="M 157,718 L 167,718 Q 177,718 186,716 L 494,637 Q 503,635 513,635 L 523,635 " fill="none" marker-end="url(#fifoEnd)" stroke="rgb(100,100,100)" stroke-width="2.5px"/>
    <path d="M 423,410 L 433,410 Q 443,410 446,419 L 500,581 Q 503,590 513,590 L 523,590 " fill="none" marker-end="url(#fifoEnd)" stroke="rgb(100,100,100)" stroke-width="2.5px"/>
    <path d="M 423,425 L 433,425 Q 443,425 445,434 L 501,686 Q 503,695 513,695 L 523,695 " fill="none" marker-end="url(#fifoEnd)" stroke="rgb(100,100,100)" stroke-width="2.5px"/>
    <path d="M 423,440 L 433,440 Q 443,440 445,449 L 501,671 Q 503,680 513,680 L 523,680 " fill="none" marker-end="url(#fifoEnd)" stroke="rgb(100,100,100)" stroke-width="2.5px"/>
    <path d="M 423,455 L 433,455 Q 443,455 450,462 L 496,508 Q 503,515 513,515 L 523,515 " fill="none" marker-end="url(#fifoEnd)" stroke="rgb(100,100,100)" stroke-width="2.5px"/>
    <path d="M 423,470 L 433,470 Q 443,470 450,477 L 496,523 Q 503,530 513,530 L 523,530 " fill="none" marker-end="url(#fifoEnd)" stroke="rgb(100,100,100)" stroke-width="2.5px"/>
    <path d="M 423,485 L 433,485 Q 443,485 447,493 L 499,597 Q 503,605 513,605 L 523,605 " fill="none" marker-end="url(#fifoEnd)" stroke="rgb(100,100,100)" stroke-width="2.5px"/>
    <path d="M 423,500 L 433,500 Q 443,500 449,507 L 497,568 Q 503,575 513,575 L 523,575 " fill="none" marker-end="url(#fifoEnd)" stroke="rgb(100,100,100)" stroke-width="2.5px"/>
    <path d="M 423,515 L 433,515 Q 443,515 451,519 L 495,541 Q 503,545 513,545 L 523,545 " fill="none" marker-end="url(#fifoEnd)" stroke="rgb(100,100,100)" stroke-width="2.5px"/>
    <path d="M 423,530 L 433,530 Q 443,530 447,538 L 499,642 Q 503,650 513,650 L 523,650 " fill="none" marker-end="url(#fifoEnd)" stroke="rgb(100,100,100)" stroke-width="2.5px"/>
    <path d="M 423,545 L 433,545 Q 443,545 447,553 L 499,657 Q 503,665 513,665 L 523,665 " fill="none" marker-end="url(#fifoEnd)" stroke="rgb(100,100,100)" stroke-width="2.5px"/>
    <path d="M 423,575 L 433,575 Q 443,575 447,567 L 499,478 Q 503,470 513,470 L 523,470 " fill="none" marker-end="url(#fifoEnd)" stroke="rgb(100,100,100)" stroke-width="2.5px"/>
    <path d="M 423,590 L 433,590 Q 443,590 451,594 L 495,616 Q 503,620 513,620 L 523,620 " fill="none" marker-end="url(#fifoEnd)" stroke="rgb(100,100,100)" stroke-width="2.5px"/>
    <path d="M 423,560 L 433,560 Q 443,560 453,560 L 493,560 Q 503,560 513,560 L 523,560 " fill="none" marker-end="url(#fifoEnd)" stroke="rgb(100,100,100)" stroke-width="2.5px"/>
    <g id="MAX_SOURCES" transform="translate(347,30)">
        <polygon fill="rgb(187,218,247)" points="0,40 0,20 44,0 89,20 89,40" stroke="rgb(98,131,167)" stroke-width="2.5px"/>
        <text fill="black" font-family="Arial" font-size="8pt" font-weight="bold" text-anchor="middle" x="44" y="35">MAX_SOURCES</text>
    </g>
    <g id="NUM_BASELINES" transform="translate(486,30)">
        <polygon fill="rgb(187,218,247)" points="0,40 0,20 49,0 99,20 99,40" stroke="rgb(98,131,167)" stroke-width="2.5px"/>
        <text fill="black" font-family="Arial" font-size="8pt" font-weight="bold" text-anchor="middle" x="49" y="35">NUM_BASELINES</text>
    </g>
    <g id="NUM_GRIDDING_KERNELS" transform="translate(849,30)">
        <polygon fill="rgb(187,218,247)" points="0,40 0,20 74,0 149,20 149,40" stroke="rgb(98,131,167)" stroke-width="2.5px"/>
        <text fill="black" font-family="Arial" font-size="8pt" font-weight="bold" text-anchor="middle" x="74" y="35">NUM_GRIDDING_KERNELS</text>
    </g>
    <g id="NUM_RECEIVERS" transform="translate(1397,30)">
        <polygon fill="rgb(187,218,247)" points="0,40 0,20 49,0 99,20 99,40" stroke="rgb(98,131,167)" stroke-width="2.5px"/>
        <text fill="black" font-family="Arial" font-size="8pt" font-weight="bold" text-anchor="middle" x="49" y="35">NUM_RECEIVERS</text>
    </g>
    <g id="TOTAL_GRIDDING_KERNEL_SAMPLES" transform="translate(2261,30)">
        <polygon fill="rgb(187,218,247)" points="0,40 0,20 105,0 210,20 210,40" stroke="rgb(98,131,167)" stroke-width="2.5px"/>
        <text fill="black" font-family="Arial" font-size="8pt" font-weight="bold" text-anchor="middle" x="105" y="35">TOTAL_GRIDDING_KERNEL_SAMPLES</text>
    </g>
    <g id="NUM_MAJOR_CYCLES" transform="translate(1048,30)">
        <polygon fill="rgb(187,218,247)" points="0,40 0,20 63,0 126,20 126,40" stroke="rgb(98,131,167)" stroke-width="2.5px"/>
        <text fill="black" font-family="Arial" font-size="8pt" font-weight="bold" text-anchor="middle" x="63" y="35">NUM_MAJOR_CYCLES</text>
    </g>
    <g id="GAUSSIAN_CLEAN_PSF" transform="translate(50,30)">
        <polygon fill="rgb(187,218,247)" points="0,40 0,20 67,0 134,20 134,40" stroke="rgb(98,131,167)" stroke-width="2.5px"/>
        <text fill="black" font-family="Arial" font-size="8pt" font-weight="bold" text-anchor="middle" x="67" y="35">GAUSSIAN_CLEAN_PSF</text>
    </g>
    <g id="Zero" transform="translate(2521,30)">
        <polygon fill="rgb(187,218,247)" points="0,40 0,20 16,0 33,20 33,40" stroke="rgb(98,131,167)" stroke-width="2.5px"/>
        <text fill="black" font-family="Arial" font-size="8pt" font-weight="bold" text-anchor="middle" x="16" y="35">Zero</text>
    </g>
    <g id="NUM_DEGRIDDING_KERNELS" transform="translate(635,30)">
        <polygon fill="rgb(187,218,247)" points="0,40 0,20 82,0 164,20 164,40" stroke="rgb(98,131,167)" stroke-width="2.5px"/>
        <text fill="black" font-family="Arial" font-size="8pt" font-weight="bold" text-anchor="middle" x="82" y="35">NUM_DEGRIDDING_KERNELS</text>
    </g>
    <g id="TOTAL_DEGRIDDING_KERNEL_SAMPLES" transform="translate(1986,30)">
        <polygon fill="rgb(187,218,247)" points="0,40 0,20 112,0 225,20 225,40" stroke="rgb(98,131,167)" stroke-width="2.5px"/>
        <text fill="black" font-family="Arial" font-size="8pt" font-weight="bold" text-anchor="middle" x="112" y="35">TOTAL_DEGRIDDING_KERNEL_SAMPLES</text>
    </g>
    <g id="OVERSAMPLING_FACTOR" transform="translate(1698,30)">
        <polygon fill="rgb(187,218,247)" points="0,40 0,20 71,0 143,20 143,40" stroke="rgb(98,131,167)" stroke-width="2.5px"/>
        <text fill="black" font-family="Arial" font-size="8pt" font-weight="bold" text-anchor="middle" x="71" y="35">OVERSAMPLING_FACTOR</text>
    </g>
    <g id="SLICES" transform="translate(1891,30)">
        <polygon fill="rgb(187,218,247)" points="0,40 0,20 22,0 45,20 45,40" stroke="rgb(98,131,167)" stroke-width="2.5px"/>
        <text fill="black" font-family="Arial" font-size="8pt" font-weight="bold" text-anchor="middle" x="22" y="35">SLICES</text>
    </g>
    <g id="GRID_SIZE" transform="translate(230,40)">
        <polygon fill="rgb(185,206,172)" points="0,40 0,20 31,0 63,20 63,40" stroke="black" stroke-width="2.5px"/>
        <text fill="black" font-family="Arial" font-size="8pt" font-weight="bold" text-anchor="middle" x="31" y="35">GRID_SIZE</text>
    </g>
    <g id="NUM_MINOR_CYCLES" transform="translate(1210,20)">
        <polygon fill="rgb(185,206,172)" points="0,40 0,20 61,0 123,20 123,40" stroke="black" stroke-width="2.5px"/>
        <text fill="black" font-family="Arial" font-size="8pt" font-weight="bold" text-anchor="middle" x="61" y="35">NUM_MINOR_CYCLES</text>
    </g>
    <g id="NUM_VISIBILITIES" transform="translate(1540,10)">
        <polygon fill="rgb(185,206,172)" points="0,40 0,20 51,0 102,20 102,40" stroke="black" stroke-width="2.5px"/>
        <text fill="black" font-family="Arial" font-size="8pt" font-weight="bold" text-anchor="middle" x="51" y="35">NUM_VISIBILITIES</text>
    </g>
    <g id="iterator" transform="translate(50,663)">
        <rect fill="rgb(237, 237, 237)" height="68" rx="4" ry="4" stroke="rgb(100, 100, 100)" stroke-width="3px" width="107"/>
        <text fill="rgb(0,0,0)" font-family="Arial" font-size="8pt" font-weight="bold" text-anchor="middle" x="53" y="12">iterator</text>
        <g id="ITER" transform="translate(0,20)">
            <polygon fill="rgb(187,218,247)" points="0,0 8,5 0,10" stroke="rgb(100,100,100)" stroke-width="1px"/>
            <text fill="rgb(0,0,0)" font-family="Arial" font-size="8pt" text-anchor="start" x="10" y="8">ITER</text>
        </g>
        <g id="START" transform="translate(0,35)">
            <polygon fill="rgb(187,218,247)" points="0,0 8,5 0,10" stroke="rgb(100,100,100)" stroke-width="1px"/>
            <text fill="rgb(0,0,0)" font-family="Arial" font-size="8pt" text-anchor="start" x="10" y="8">START</text>
        </g>
        <g id="cycle_out" transform="translate(99,50)">
            <rect fill="rgb(234,153,153)" height="8" stroke="rgb(100,100,100)" stroke-width="1px" width="8" x="0" y="1"/>
            <text fill="rgb(0,0,0)" font-family="Arial" font-size="8pt" text-anchor="end" x="-2" y="8">cycle_out</text>
        </g>
    </g>
    <g id="setup_ri_pipeline" transform="translate(50,250)">
        <rect fill="rgb(255, 255, 255)" height="353" rx="4" ry="4" stroke="rgb(128, 100, 162)" stroke-width="3px" width="373"/>
        <text fill="rgb(0,0,0)" font-family="Arial" font-size="8pt" font-style="italic" font-weight="bold" text-anchor="middle" x="186" y="12">setup_ri_pipeline</text>
        <g id="NUM_GRIDDING_KERNELS" transform="translate(0,20)">
            <polygon fill="rgb(187,218,247)" points="0,0 8,5 0,10" stroke="rgb(100,100,100)" stroke-width="1px"/>
            <text fill="rgb(0,0,0)" font-family="Arial" font-size="8pt" text-anchor="start" x="10" y="8">NUM_GRIDDING_KERNELS</text>
        </g>
        <g id="GRID_SIZE" transform="translate(0,35)">
            <polygon fill="rgb(187,218,247)" points="0,0 8,5 0,10" stroke="rgb(100,100,100)" stroke-width="1px"/>
            <text fill="rgb(0,0,0)" font-family="Arial" font-size="8pt" text-anchor="start" x="10" y="8">GRID_SIZE</text>
        </g>
        <g id="GAUSSIAN_CLEAN_PSF" transform="translate(0,50)">
            <polygon fill="rgb(187,218,247)" points="0,0 8,5 0,10" stroke="rgb(100,100,100)" stroke-width="1px"/>
            <text fill="rgb(0,0,0)" font-family="Arial" font-size="8pt" text-anchor="start" x="10" y="8">GAUSSIAN_CLEAN_PSF</text>
        </g>
        <g id="NUM_RECEIVERS" transform="translate(0,65)">
            <polygon fill="rgb(187,218,247)" points="0,0 8,5 0,10" stroke="rgb(100,100,100)" stroke-width="1px"/>
            <text fill="rgb(0,0,0)" font-family="Arial" font-size="8pt" text-anchor="start" x="10" y="8">NUM_RECEIVERS</text>
        </g>
        <g id="NUM_BASELINES" transform="translate(0,80)">
            <polygon fill="rgb(187,218,247)" points="0,0 8,5 0,10" stroke="rgb(100,100,100)" stroke-width="1px"/>
            <text fill="rgb(0,0,0)" font-family="Arial" font-size="8pt" text-anchor="start" x="10" y="8">NUM_BASELINES</text>
        </g>
        <g id="TOTAL_GRIDDING_KERNEL_SAMPLES" transform="translate(0,94)">
            <polygon fill="rgb(187,218,247)" points="0,0 8,5 0,10" stroke="rgb(100,100,100)" stroke-width="1px"/>
            <text fill="rgb(0,0,0)" font-family="Arial" font-size="8pt" text-anchor="start" x="10" y="8">TOTAL_GRIDDING_KERNEL_SAMPLES</text>
        </g>
        <g id="NUM_VISIBILITIES" transform="translate(0,110)">
            <polygon fill="rgb(187,218,247)" points="0,0 8,5 0,10" stroke="rgb(100,100,100)" stroke-width="1px"/>
            <text fill="rgb(0,0,0)" font-family="Arial" font-size="8pt" text-anchor="start" x="10" y="8">NUM_VISIBILITIES</text>
        </g>
        <g id="TOTAL_DEGRIDDING_KERNEL_SAMPLES" transform="translate(0,124)">
            <polygon fill="rgb(187,218,247)" points="0,0 8,5 0,10" stroke="rgb(100,100,100)" stroke-width="1px"/>
            <text fill="rgb(0,0,0)" font-family="Arial" font-size="8pt" text-anchor="start" x="10" y="8">TOTAL_DEGRIDDING_KERNEL_SAMPLES</text>
        </g>
        <g id="NUM_DEGRIDDING_KERNELS" transform="translate(0,140)">
            <polygon fill="rgb(187,218,247)" points="0,0 8,5 0,10" stroke="rgb(100,100,100)" stroke-width="1px"/>
            <text fill="rgb(0,0,0)" font-family="Arial" font-size="8pt" text-anchor="start" x="10" y="8">NUM_DEGRIDDING_KERNELS</text>
        </g>
        <g id="config" transform="translate(365,155)">
            <rect fill="rgb(234,153,153)" height="8" stroke="rgb(100,100,100)" stroke-width="1px" width="8" x="0" y="1"/>
            <text fill="rgb(0,0,0)" font-family="Arial" font-size="8pt" text-anchor="end" x="-2" y="8">config</text>
        </g>
        <g id="clean_psf" transform="translate(365,170)">
            <rect fill="rgb(234,153,153)" height="8" stroke="rgb(100,100,100)" stroke-width="1px" width="8" x="0" y="1"/>
            <text fill="rgb(0,0,0)" font-family="Arial" font-size="8pt" text-anchor="end" x="-2" y="8">clean_psf</text>
        </g>
        <g id="psf_halfdims" transform="translate(365,185)">
            <rect fill="rgb(234,153,153)" height="8" stroke="rgb(100,100,100)" stroke-width="1px" width="8" x="0" y="1"/>
            <text fill="rgb(0,0,0)" font-family="Arial" font-size="8pt" text-anchor="end" x="-2" y="8">psf_halfdims</text>
        </g>
        <g id="gridding_kernel_supports" transform="translate(365,200)">
            <rect fill="rgb(234,153,153)" height="8" stroke="rgb(100,100,100)" stroke-width="1px" width="8" x="0" y="1"/>
            <text fill="rgb(0,0,0)" font-family="Arial" font-size="8pt" text-anchor="end" x="-2" y="8">gridding_kernel_supports</text>
        </g>
        <g id="gridding_kernels" transform="translate(365,215)">
            <rect fill="rgb(234,153,153)" height="8" stroke="rgb(100,100,100)" stroke-width="1px" width="8" x="0" y="1"/>
            <text fill="rgb(0,0,0)" font-family="Arial" font-size="8pt" text-anchor="end" x="-2" y="8">gridding_kernels</text>
        </g>
        <g id="psf" transform="translate(365,229)">
            <rect fill="rgb(234,153,153)" height="8" stroke="rgb(100,100,100)" stroke-width="1px" width="8" x="0" y="1"/>
            <text fill="rgb(0,0,0)" font-family="Arial" font-size="8pt" text-anchor="end" x="-2" y="8">psf</text>
        </g>
        <g id="receiver_pairs" transform="translate(365,245)">
            <rect fill="rgb(234,153,153)" height="8" stroke="rgb(100,100,100)" stroke-width="1px" width="8" x="0" y="1"/>
            <text fill="rgb(0,0,0)" font-family="Arial" font-size="8pt" text-anchor="end" x="-2" y="8">receiver_pairs</text>
        </g>
        <g id="vis_uvw_coords" transform="translate(365,260)">
            <rect fill="rgb(234,153,153)" height="8" stroke="rgb(100,100,100)" stroke-width="1px" width="8" x="0" y="1"/>
            <text fill="rgb(0,0,0)" font-family="Arial" font-size="8pt" text-anchor="end" x="-2" y="8">vis_uvw_coords</text>
        </g>
        <g id="degridding_kernel_supports" transform="translate(365,275)">
            <rect fill="rgb(234,153,153)" height="8" stroke="rgb(100,100,100)" stroke-width="1px" width="8" x="0" y="1"/>
            <text fill="rgb(0,0,0)" font-family="Arial" font-size="8pt" text-anchor="end" x="-2" y="8">degridding_kernel_supports</text>
        </g>
        <g id="degridding_kernels" transform="translate(365,290)">
            <rect fill="rgb(234,153,153)" height="8" stroke="rgb(100,100,100)" stroke-width="1px" width="8" x="0" y="1"/>
            <text fill="rgb(0,0,0)" font-family="Arial" font-size="8pt" text-anchor="end" x="-2" y="8">degridding_kernels</text>
        </g>
        <g id="gains" transform="translate(365,305)">
            <rect fill="rgb(234,153,153)" height="8" stroke="rgb(100,100,100)" stroke-width="1px" width="8" x="0" y="1"/>
            <text fill="rgb(0,0,0)" font-family="Arial" font-size="8pt" text-anchor="end" x="-2" y="8">gains</text>
        </g>
        <g id="measured_visibilities" transform="translate(365,320)">
            <rect fill="rgb(234,153,153)" height="8" stroke="rgb(100,100,100)" stroke-width="1px" width="8" x="0" y="1"/>
            <text fill="rgb(0,0,0)" font-family="Arial" font-size="8pt" text-anchor="end" x="-2" y="8">measured_visibilities</text>
        </g>
        <g id="prolate" transform="translate(365,335)">
            <rect fill="rgb(234,153,153)" height="8" stroke="rgb(100,100,100)" stroke-width="1px" width="8" x="0" y="1"/>
            <text fill="rgb(0,0,0)" font-family="Arial" font-size="8pt" text-anchor="end" x="-2" y="8">prolate</text>
        </g>
    </g>
    <g id="delta_psi" transform="translate(523,250)">
        <rect fill="rgb(255, 255, 255)" height="458" rx="4" ry="4" stroke="rgb(128, 100, 162)" stroke-width="3px" width="349"/>
        <text fill="rgb(0,0,0)" font-family="Arial" font-size="8pt" font-style="italic" font-weight="bold" text-anchor="middle" x="174" y="12">delta_psi</text>
        <g id="GRID_SIZE" transform="translate(0,20)">
            <polygon fill="rgb(187,218,247)" points="0,0 8,5 0,10" stroke="rgb(100,100,100)" stroke-width="1px"/>
            <text fill="rgb(0,0,0)" font-family="Arial" font-size="8pt" text-anchor="start" x="10" y="8">GRID_SIZE</text>
        </g>
        <g id="NUM_GRIDDING_KERNELS" transform="translate(0,35)">
            <polygon fill="rgb(187,218,247)" points="0,0 8,5 0,10" stroke="rgb(100,100,100)" stroke-width="1px"/>
            <text fill="rgb(0,0,0)" font-family="Arial" font-size="8pt" text-anchor="start" x="10" y="8">NUM_GRIDDING_KERNELS</text>
        </g>
        <g id="TOTAL_GRIDDING_KERNEL_SAMPLES" transform="translate(0,50)">
            <polygon fill="rgb(187,218,247)" points="0,0 8,5 0,10" stroke="rgb(100,100,100)" stroke-width="1px"/>
            <text fill="rgb(0,0,0)" font-family="Arial" font-size="8pt" text-anchor="start" x="10" y="8">TOTAL_GRIDDING_KERNEL_SAMPLES</text>
        </g>
        <g id="NUM_VISIBILITIES" transform="translate(0,65)">
            <polygon fill="rgb(187,218,247)" points="0,0 8,5 0,10" stroke="rgb(100,100,100)" stroke-width="1px"/>
            <text fill="rgb(0,0,0)" font-family="Arial" font-size="8pt" text-anchor="start" x="10" y="8">NUM_VISIBILITIES</text>
        </g>
        <g id="NUM_RECEIVERS" transform="translate(0,80)">
            <polygon fill="rgb(187,218,247)" points="0,0 8,5 0,10" stroke="rgb(100,100,100)" stroke-width="1px"/>
            <text fill="rgb(0,0,0)" font-family="Arial" font-size="8pt" text-anchor="start" x="10" y="8">NUM_RECEIVERS</text>
        </g>
        <g id="NUM_BASELINES" transform="translate(0,95)">
            <polygon fill="rgb(187,218,247)" points="0,0 8,5 0,10" stroke="rgb(100,100,100)" stroke-width="1px"/>
            <text fill="rgb(0,0,0)" font-family="Arial" font-size="8pt" text-anchor="start" x="10" y="8">NUM_BASELINES</text>
        </g>
        <g id="NUM_DEGRIDDING_KERNELS" transform="translate(0,110)">
            <polygon fill="rgb(187,218,247)" points="0,0 8,5 0,10" stroke="rgb(100,100,100)" stroke-width="1px"/>
            <text fill="rgb(0,0,0)" font-family="Arial" font-size="8pt" text-anchor="start" x="10" y="8">NUM_DEGRIDDING_KERNELS</text>
        </g>
        <g id="TOTAL_DEGRIDDING_KERNEL_SAMPLES" transform="translate(0,125)">
            <polygon fill="rgb(187,218,247)" points="0,0 8,5 0,10" stroke="rgb(100,100,100)" stroke-width="1px"/>
            <text fill="rgb(0,0,0)" font-family="Arial" font-size="8pt" text-anchor="start" x="10" y="8">TOTAL_DEGRIDDING_KERNEL_SAMPLES</text>
        </g>
        <g id="MAX_SOURCES" transform="translate(0,140)">
            <polygon fill="rgb(187,218,247)" points="0,0 8,5 0,10" stroke="rgb(100,100,100)" stroke-width="1px"/>
            <text fill="rgb(0,0,0)" font-family="Arial" font-size="8pt" text-anchor="start" x="10" y="8">MAX_SOURCES</text>
        </g>
        <g id="OVERSAMPLING_FACTOR" transform="translate(0,155)">
            <polygon fill="rgb(187,218,247)" points="0,0 8,5 0,10" stroke="rgb(100,100,100)" stroke-width="1px"/>
            <text fill="rgb(0,0,0)" font-family="Arial" font-size="8pt" text-anchor="start" x="10" y="8">OVERSAMPLING_FACTOR</text>
        </g>
        <g id="SLICES" transform="translate(0,170)">
            <polygon fill="rgb(187,218,247)" points="0,0 8,5 0,10" stroke="rgb(100,100,100)" stroke-width="1px"/>
            <text fill="rgb(0,0,0)" font-family="Arial" font-size="8pt" text-anchor="start" x="10" y="8">SLICES</text>
        </g>
        <g id="NUM_MINOR_CYCLES" transform="translate(0,185)">
            <polygon fill="rgb(187,218,247)" points="0,0 8,5 0,10" stroke="rgb(100,100,100)" stroke-width="1px"/>
            <text fill="rgb(0,0,0)" font-family="Arial" font-size="8pt" text-anchor="start" x="10" y="8">NUM_MINOR_CYCLES</text>
        </g>
        <g id="in_image_estimate_d" transform="translate(0,200)">
            <rect fill="rgb(182,215,122)" height="8" stroke="rgb(100,100,100)" stroke-width="1px" width="8" x="0" y="1"/>
            <text fill="rgb(0,0,0)" font-family="Arial" font-size="8pt" text-anchor="start" x="10" y="8">in_image_estimate_d</text>
        </g>
        <g id="measured_vis" transform="translate(0,215)">
            <rect fill="rgb(182,215,122)" height="8" stroke="rgb(100,100,100)" stroke-width="1px" width="8" x="0" y="1"/>
            <text fill="rgb(0,0,0)" font-family="Arial" font-size="8pt" text-anchor="start" x="10" y="8">measured_vis</text>
        </g>
        <g id="in_source_list_d" transform="translate(0,229)">
            <rect fill="rgb(182,215,122)" height="8" stroke="rgb(100,100,100)" stroke-width="1px" width="8" x="0" y="1"/>
            <text fill="rgb(0,0,0)" font-family="Arial" font-size="8pt" text-anchor="start" x="10" y="8">in_source_list_d</text>
        </g>
        <g id="in_num_sources_d" transform="translate(0,245)">
            <rect fill="rgb(182,215,122)" height="8" stroke="rgb(100,100,100)" stroke-width="1px" width="8" x="0" y="1"/>
            <text fill="rgb(0,0,0)" font-family="Arial" font-size="8pt" text-anchor="start" x="10" y="8">in_num_sources_d</text>
        </g>
        <g id="gridding_kernel_supports" transform="translate(0,260)">
            <rect fill="rgb(182,215,122)" height="8" stroke="rgb(100,100,100)" stroke-width="1px" width="8" x="0" y="1"/>
            <text fill="rgb(0,0,0)" font-family="Arial" font-size="8pt" text-anchor="start" x="10" y="8">gridding_kernel_supports</text>
        </g>
        <g id="gridding_kernels" transform="translate(0,275)">
            <rect fill="rgb(182,215,122)" height="8" stroke="rgb(100,100,100)" stroke-width="1px" width="8" x="0" y="1"/>
            <text fill="rgb(0,0,0)" font-family="Arial" font-size="8pt" text-anchor="start" x="10" y="8">gridding_kernels</text>
        </g>
        <g id="vis_coords" transform="translate(0,290)">
            <rect fill="rgb(182,215,122)" height="8" stroke="rgb(100,100,100)" stroke-width="1px" width="8" x="0" y="1"/>
            <text fill="rgb(0,0,0)" font-family="Arial" font-size="8pt" text-anchor="start" x="10" y="8">vis_coords</text>
        </g>
        <g id="gains" transform="translate(0,305)">
            <rect fill="rgb(182,215,122)" height="8" stroke="rgb(100,100,100)" stroke-width="1px" width="8" x="0" y="1"/>
            <text fill="rgb(0,0,0)" font-family="Arial" font-size="8pt" text-anchor="start" x="10" y="8">gains</text>
        </g>
        <g id="receiver_pairs" transform="translate(0,320)">
            <rect fill="rgb(182,215,122)" height="8" stroke="rgb(100,100,100)" stroke-width="1px" width="8" x="0" y="1"/>
            <text fill="rgb(0,0,0)" font-family="Arial" font-size="8pt" text-anchor="start" x="10" y="8">receiver_pairs</text>
        </g>
        <g id="config" transform="translate(0,335)">
            <rect fill="rgb(182,215,122)" height="8" stroke="rgb(100,100,100)" stroke-width="1px" width="8" x="0" y="1"/>
            <text fill="rgb(0,0,0)" font-family="Arial" font-size="8pt" text-anchor="start" x="10" y="8">config</text>
        </g>
        <g id="psf" transform="translate(0,350)">
            <rect fill="rgb(182,215,122)" height="8" stroke="rgb(100,100,100)" stroke-width="1px" width="8" x="0" y="1"/>
            <text fill="rgb(0,0,0)" font-family="Arial" font-size="8pt" text-anchor="start" x="10" y="8">psf</text>
        </g>
        <g id="prolate" transform="translate(0,365)">
            <rect fill="rgb(182,215,122)" height="8" stroke="rgb(100,100,100)" stroke-width="1px" width="8" x="0" y="1"/>
            <text fill="rgb(0,0,0)" font-family="Arial" font-size="8pt" text-anchor="start" x="10" y="8">prolate</text>
        </g>
        <g id="cycle" transform="translate(0,380)">
            <rect fill="rgb(182,215,122)" height="8" stroke="rgb(100,100,100)" stroke-width="1px" width="8" x="0" y="1"/>
            <text fill="rgb(0,0,0)" font-family="Arial" font-size="8pt" text-anchor="start" x="10" y="8">cycle</text>
        </g>
        <g id="degridding_kernel_supports" transform="translate(0,395)">
            <rect fill="rgb(182,215,122)" height="8" stroke="rgb(100,100,100)" stroke-width="1px" width="8" x="0" y="1"/>
            <text fill="rgb(0,0,0)" font-family="Arial" font-size="8pt" text-anchor="start" x="10" y="8">degridding_kernel_supports</text>
        </g>
        <g id="degridding_kernels" transform="translate(0,410)">
            <rect fill="rgb(182,215,122)" height="8" stroke="rgb(100,100,100)" stroke-width="1px" width="8" x="0" y="1"/>
            <text fill="rgb(0,0,0)" font-family="Arial" font-size="8pt" text-anchor="start" x="10" y="8">degridding_kernels</text>
        </g>
        <g id="partial_psf_halfdims" transform="translate(0,425)">
            <rect fill="rgb(182,215,122)" height="8" stroke="rgb(100,100,100)" stroke-width="1px" width="8" x="0" y="1"/>
            <text fill="rgb(0,0,0)" font-family="Arial" font-size="8pt" text-anchor="start" x="10" y="8">partial_psf_halfdims</text>
        </g>
        <g id="clean_psf" transform="translate(0,440)">
            <rect fill="rgb(182,215,122)" height="8" stroke="rgb(100,100,100)" stroke-width="1px" width="8" x="0" y="1"/>
            <text fill="rgb(0,0,0)" font-family="Arial" font-size="8pt" text-anchor="start" x="10" y="8">clean_psf</text>
        </g>
        <g id="out_image_estimate_d" transform="translate(341,200)">
            <rect fill="rgb(234,153,153)" height="8" stroke="rgb(100,100,100)" stroke-width="1px" width="8" x="0" y="1"/>
            <text fill="rgb(0,0,0)" font-family="Arial" font-size="8pt" text-anchor="end" x="-2" y="8">out_image_estimate_d</text>
        </g>
        <g id="out_source_list_d" transform="translate(341,215)">
            <rect fill="rgb(234,153,153)" height="8" stroke="rgb(100,100,100)" stroke-width="1px" width="8" x="0" y="1"/>
            <text fill="rgb(0,0,0)" font-family="Arial" font-size="8pt" text-anchor="end" x="-2" y="8">out_source_list_d</text>
        </g>
        <g id="out_num_sources_d" transform="translate(341,229)">
            <rect fill="rgb(234,153,153)" height="8" stroke="rgb(100,100,100)" stroke-width="1px" width="8" x="0" y="1"/>
            <text fill="rgb(0,0,0)" font-family="Arial" font-size="8pt" text-anchor="end" x="-2" y="8">out_num_sources_d</text>
        </g>
    </g>
</svg>
